# xmcd CD database file
#
# Track frame offsets:
#	150
#	63537
#	177645
#	232980
#	257175
#	288205
#
# Disc length: 4126 seconds
#
# Revision: 0
# Processed by: cddbd v1.5.2PL0 Copyright (c) Steve Scherf et al.
# Submitted via: CDex 1.51
#
DISCID=55101c06
DTITLE=Lawrence D. Butch Morris - Holy Sea (Conductions 57, 58, 59)
DYEAR=1999
DGENRE=Jazz
TTITLE0=57E1
TTITLE1=57
TTITLE2=57E2
TTITLE3=58E1
TTITLE4=58E2
TTITLE5=58E3
EXTD=YEAR: 1999
EXTT0=
EXTT1=
EXTT2=
EXTT3=
EXTT4=
EXTT5=
PLAYORDER=
